<?xml version="1.0" encoding="utf-8"?>
<!-- Generator: Adobe Illustrator 17.0.0, SVG Export Plug-In . SVG Version: 6.00 Build 0)  -->
<!DOCTYPE svg PUBLIC "-//W3C//DTD SVG 1.1//EN" "http://www.w3.org/Graphics/SVG/1.1/DTD/svg11.dtd">
<svg version="1.1" id="Layer_1" xmlns="http://www.w3.org/2000/svg" xmlns:xlink="http://www.w3.org/1999/xlink" x="0px" y="0px"
	 width="1929.116px" height="563.29px" viewBox="0 0 1929.116 563.29" enable-background="new 0 0 1929.116 563.29"
	 xml:space="preserve">
<path fill="#FFFFFF" d="M1843.218,425.799c-46.04,0-87.377-18.891-115.732-48.863c-17.566,13.014-39.742,20.782-63.849,20.782
	c-14.596,0-28.479-2.855-41.064-7.991c-20.477,22.297-48.603,36.072-79.656,36.072c-27.815,0-53.281-11.054-73.007-29.381
	c-19.727,18.328-45.197,29.381-73.014,29.381c-36.399,0-68.789-18.914-89.536-48.312c-3.781,0.761-7.618,1.344-11.504,1.743
	c-54.477,27.756-117.454,11.061-154.997-36.754c-15.287,4.746-31.624,7.322-48.604,7.322c-46.04,0-87.378-18.891-115.733-48.863
	c-9.169,6.794-19.604,12.14-30.905,15.716c-17.156,62.763-77.782,109.147-149.939,109.147c-46.04,0-87.377-18.891-115.732-48.863
	c-17.566,13.014-39.741,20.782-63.848,20.782c-39.584,0-73.955-20.941-91.265-51.673c-3.913,0.424-7.889,0.649-11.922,0.649
	c-10.46,0-20.553-1.468-30.067-4.186c-28.395,31.954-71.107,52.29-118.879,52.29c-46.04,0-87.377-18.891-115.732-48.863
	c-17.566,13.014-39.742,20.782-63.849,20.782c-39.583,0-73.954-20.941-91.265-51.673c-3.912,0.424-7.889,0.649-11.922,0.649
	C24.203,315.694-22,272.285-22,218.738c0-53.546,46.203-96.955,103.197-96.955c10.839,0,21.286,1.575,31.1,4.486
	C134.309,85.748,179.153,58,230.896,58c42.718,0,80.729,18.915,105.078,48.313c9.079-1.56,18.433-2.378,27.991-2.378
	c48.07,0,91.021,20.585,119.413,52.885c9.358-2.622,19.268-4.037,29.533-4.037c10.838,0,21.285,1.575,31.1,4.486
	C566.022,116.748,610.866,89,662.609,89c26.043,0,50.329,7.04,70.844,19.19c18.864-19.303,45.943-31.407,76.034-31.407
	c10.838,0,21.285,1.575,31.1,4.486C862.598,40.748,907.442,13,959.185,13c42.718,0,80.73,18.915,105.078,48.313
	c9.08-1.56,18.433-2.378,27.992-2.378c45.422,0,86.275,18.38,114.592,47.655c7.069-2.068,14.203-3.467,21.334-4.205
	C1245.008,93.801,1263.749,89,1283.508,89c7.632,0,15.109,0.725,22.386,2.098c7.474-9.042,16.627-16.672,27.271-22.241
	c30.471-15.946,65.074-10.871,90.349,9.918c2.848-1.958,5.821-3.763,8.926-5.387c43.874-22.958,96.321-2.354,117.143,46.021
	c0.576,1.337,1.116,2.683,1.631,4.034c9.736-4.097,20.294-6.36,31.335-6.36c12.214,0,23.84,2.758,34.41,7.722
	c24.007-22.138,56.894-35.804,93.19-35.804c42.718,0,80.729,18.915,105.077,48.313c9.08-1.56,18.434-2.378,27.992-2.378
	c124.009,0,154.796,25.589,154.796,145.431C1998.014,360.688,1928.71,425.799,1843.218,425.799"/>
</svg>
