<?xml version="1.0" encoding="utf-8"?>
<!-- Generator: Adobe Illustrator 17.0.0, SVG Export Plug-In . SVG Version: 6.00 Build 0)  -->
<!DOCTYPE svg PUBLIC "-//W3C//DTD SVG 1.1//EN" "http://www.w3.org/Graphics/SVG/1.1/DTD/svg11.dtd">
<svg version="1.1" id="Layer_1" xmlns="http://www.w3.org/2000/svg" xmlns:xlink="http://www.w3.org/1999/xlink" x="0px" y="0px"
	 width="2246.206px" height="653.696px" viewBox="0 0 2246.206 653.696" enable-background="new 0 0 2246.206 653.696"
	 xml:space="preserve">
<g>
	<defs>
		<path id="SVGID_75465_" d="M-1115.062-748.733c-436.902,380.051-1099.013,334.118-1478.666-102.814
			c-379.967-436.929-333.905-1099.041,102.786-1478.869c436.739-379.948,1098.672-333.974,1478.67,102.77
			C-632.305-1790.818-678.487-1128.579-1115.062-748.733"/>
	</defs>
	<clipPath id="SVGID_2_">
		<use xlink:href="#SVGID_75465_"  overflow="visible"/>
	</clipPath>
	
		<radialGradient id="SVGID_4_" cx="-2001.6155" cy="5237.3003" r="1" gradientTransform="matrix(687.7632 791.0262 790.8386 -687.8882 -2767024.5 5184468)" gradientUnits="userSpaceOnUse">
		<stop  offset="0" style="stop-color:#3B6CB4"/>
		<stop  offset="0.0862" style="stop-color:#3D5C90"/>
		<stop  offset="0.2113" style="stop-color:#364969"/>
		<stop  offset="0.3394" style="stop-color:#2C374B"/>
		<stop  offset="0.4681" style="stop-color:#222934"/>
		<stop  offset="0.5977" style="stop-color:#181C22"/>
		<stop  offset="0.7286" style="stop-color:#0D1013"/>
		<stop  offset="0.8616" style="stop-color:#040506"/>
		<stop  offset="1" style="stop-color:#010101"/>
	</radialGradient>
	<polygon clip-path="url(#SVGID_2_)" fill="url(#SVGID_4_)" points="-1640.537,-3869.974 526.963,-1377.038 -1965.464,790.928 
		-4132.964,-1702.007 	"/>
</g>
<g>
	<defs>
		<rect id="SVGID_75468_" x="-1857.556" y="-1684.786" width="1980.001" height="1097.537"/>
	</defs>
	<clipPath id="SVGID_6_">
		<use xlink:href="#SVGID_75468_"  overflow="visible"/>
	</clipPath>
	<g clip-path="url(#SVGID_6_)">
		<g>
			<defs>
				<rect id="SVGID_75470_" x="-2626.991" y="-2455.383" width="2096.205" height="2096.6"/>
			</defs>
			<clipPath id="SVGID_8_">
				<use xlink:href="#SVGID_75470_"  overflow="visible"/>
			</clipPath>
			<g clip-path="url(#SVGID_8_)">
				<defs>
					<path id="SVGID_75472_" d="M-890.931-616.245c-436.902,380.051-1099.013,334.118-1478.666-102.814
						c-379.967-436.929-333.905-1099.041,102.786-1478.869c436.739-379.948,1098.672-333.974,1478.67,102.77
						C-408.174-1658.33-454.356-996.091-890.931-616.245"/>
				</defs>
				<clipPath id="SVGID_10_">
					<use xlink:href="#SVGID_75472_"  overflow="visible"/>
				</clipPath>
				
					<radialGradient id="SVGID_11_" cx="-2001.3798" cy="5237.3789" r="1" gradientTransform="matrix(687.7632 791.0262 790.8386 -687.8882 -2767024.5 5184468)" gradientUnits="userSpaceOnUse">
					<stop  offset="0" style="stop-color:#3B6CB4"/>
					<stop  offset="0.0862" style="stop-color:#3D5C90"/>
					<stop  offset="0.2113" style="stop-color:#364969"/>
					<stop  offset="0.3394" style="stop-color:#2C374B"/>
					<stop  offset="0.4681" style="stop-color:#222934"/>
					<stop  offset="0.5977" style="stop-color:#181C22"/>
					<stop  offset="0.7286" style="stop-color:#0D1013"/>
					<stop  offset="0.8616" style="stop-color:#040506"/>
					<stop  offset="1" style="stop-color:#010101"/>
				</radialGradient>
				<polygon clip-path="url(#SVGID_10_)" fill="url(#SVGID_11_)" points="-1416.405,-3737.486 751.094,-1244.551 -1741.333,923.416 
					-3908.833,-1569.519 				"/>
			</g>
		</g>
	</g>
</g>
<path fill="#FFFFFF" d="M2142.465,448.068c0,16.479-2.92,32.32-8.29,47.08c-20.83,57.221-78.56,98.351-146.51,98.351
	c-46.04,0-87.38-18.891-115.73-48.86c-17.57,13.01-39.74,20.78-63.85,20.78c-14.6,0-28.48-2.86-41.06-7.99
	c-20.48,22.289-48.61,36.07-79.66,36.07c-27.81,0-53.28-11.05-73.01-29.38c-19.72,18.33-45.19,29.38-73.01,29.38
	c-36.4,0-68.79-18.91-89.54-48.311c-3.78,0.761-7.61,1.341-11.5,1.74c-54.48,27.76-117.45,11.061-155-36.75c-15.28,4.74,16.98,0,0,0
	c-46.04,0-41.13,106.38-195.24,55.17c-9.17,6.79,11.3-3.569,0,0c-17.16,62.771-118.89,57.21-149.338,45.21
	c-42.833-16.882-87.982-35.95-116.332-65.92c-17.57,13.01-39.74,20.78-63.85,20.78c-39.58,0-73.95-20.94-91.26-51.67
	c-3.92,0.42-7.89,0.649-11.93,0.649c-10.46,0-20.55-1.47-30.06-4.189c-28.4,31.96-71.11,52.29-118.88,52.29
	c-46.04,0-87.38-18.891-115.73-48.86c-17.57,13.01-39.75,20.78-63.85,20.78c-39.59,0-73.96-20.94-91.27-51.67
	c-3.91,0.42-7.89,0.649-11.92,0.649c-36.87,0-69.22-18.17-87.47-45.489c-9.97-14.91-15.73-32.561-15.73-51.471
	c0-18.909,5.76-36.55,15.73-51.46c6.97-10.449-11.08-23.16-0.5-30.42c-16.66-17.25,0.26-36.67,0.26-61.939
	c0-53.551,45.66-96.95,101.98-96.95c3.99,0,7.92,0.22,11.79,0.64c17.1-30.729,51.07-51.67,90.19-51.67
	c23.82,0,45.73,7.771,63.09,20.78c28.02-29.97,68.88-48.86,114.37-48.86c47.21,0,89.42,20.34,117.48,52.29
	c9.4-2.72,19.38-4.18,29.72-4.18c3.98,0,7.91,0.22,11.78,0.64c17.1-30.729,51.07-51.67,90.19-51.67c23.82,0,45.74,7.771,63.1,20.78
	c28.02-29.97,68.87-48.86,114.37-48.86c71.3,0,131.22,46.391,148.17,109.15c11.17,3.57,21.48,8.92,30.54,15.71
	c28.02-29.97,68.87-48.86,114.37-48.86c16.78,0,32.93,2.58,48.03,7.32c37.1-47.811,99.34-64.51,153.18-36.75
	c3.84,0.4,7.63,0.979,11.36,1.74c20.51-29.401,52.52-48.311,88.49-48.311c27.49,0,52.66,11.05,72.15,29.38
	c19.5-18.33,44.66-29.38,72.15-29.38c30.69,0,58.48,13.78,78.72,36.07c12.43-5.13,26.15-7.99,40.58-7.99
	c23.82,0,45.74,7.771,63.1,20.78c28.02-29.97,68.87-48.86,114.37-48.86c84.48,0,152.97,65.11,152.97,145.431
	c0,54,2.667,116.902,2.667,116.902s-13.557,34.478-2.667,71.247C2140.135,389.268,2142.465,415.098,2142.465,448.068"/>
</svg>
